<svg xmlns="http://www.w3.org/2000/svg" viewBox="0 0 328.8 79.5" xml:space="preserve">
  <path d="m158.7 38.9-6.8-29.6h-19.7l-6.4 29.6-6.1-29.6H97.4L114.1 70h20.7l7-29.6 7.1 29.6h21.2l17.2-60.7H165l-6.3 29.6zm85.9-29.6V70h41.6V51.9h-18.7V9.3h-22.9zm-42.9 51.4h14l2.3 9.2h22.4L221.1 9.2H196L176.3 70h23.3l2.1-9.3zm7.1-31.1 3.8 17.7h-7.8l4-17.7zM328.8 0H0v6.2h328.8V0zm-.4 64.9c0-2.9-2.3-5-5-5s-5 2.1-5 5 2.3 5 5 5 5-2.1 5-5zm-9.1 0c0-2.4 1.8-4.1 4.1-4.1 2.2 0 4 1.8 4 4.1 0 2.4-1.8 4.2-4 4.2-2.3 0-4.1-1.8-4.1-4.2zM278.9 9.3v17.2h13.5V70h22.9V26.5h13.5V9.3h-49.9zm46.7 58.1-1.3-1.9c.9-.1 1.4-.6 1.4-1.7 0-.9-.7-1.5-2.1-1.5h-2.2v5.1h.9v-1.8h.8l1.1 1.8h1.4zm-3.2-2.7v-1.6h1.1c.6 0 1.3 0 1.3.8 0 .9-.6.8-1.3.8h-1.1zM0 9.3V70h28.3c17.3 0 30.2-9.5 30.2-30.2 0-21.3-13.3-30.5-30.1-30.5H0zm35.4 30.3c0 9.2-4.8 12.2-12 12.2h-1.8V26.7h1.8c7.3 0 12 2.7 12 12.9zm61.2-4.8V22.3H63.3V70h33.3V57.6H80.5v-5.2h14V40h-14v-5.2h16.1zM0 79.5h328.8v-6.2H0v6.2z"/>
</svg>
