<svg xmlns="http://www.w3.org/2000/svg" viewBox="0 0 145.1 124.4" xml:space="preserve">
  <path d="m143.9 57.5-18.7-32.3-11.8-20.5c-.3-.5-.7-1-1.1-1.5-.8-.9-1.8-1.7-2.9-2.2-.4-.2-.9-.4-1.3-.5-.9-.3-1.9-.5-2.9-.5h-61c-1.7 0-3.3.4-4.7 1.3-1.4.8-2.6 2-3.4 3.5L5.6 57.5a9.3 9.3 0 0 0 0 9.4l30.5 52.8c1.7 2.9 4.8 4.7 8.2 4.7h61c2.7 0 5.3-1.2 7.1-3.2.4-.5.8-1 1.1-1.5l15.2-26.4 15.2-26.4a9.3 9.3 0 0 0 0-9.4" fill="#febc18"/>
  <path d="M95.2 64.8H74.8c-1.4 0-2.6-1.2-2.6-2.6V32.5c-.1-1.4 1-2.7 2.5-2.8 1.4-.1 2.7 1 2.8 2.5v27.4h17.8c1.4.1 2.6 1.3 2.5 2.8-.2 1.3-1.3 2.4-2.6 2.4M36.6 51.9H18.3c-1.4.1-2.7-1-2.8-2.5-.1-1.4 1-2.7 2.5-2.8h18.6c1.4-.1 2.7 1 2.8 2.5.1 1.4-1 2.7-2.5 2.8h-.3m0 25.9H18.3c-1.4.1-2.7-1-2.8-2.5-.1-1.4 1-2.7 2.5-2.8h18.6c1.4-.1 2.7 1 2.8 2.5.1 1.4-1 2.7-2.5 2.8h-.3m-5.8-12.9H2.6c-1.4.1-2.7-1-2.8-2.5-.1-1.4 1-2.7 2.5-2.8h28.5c1.4.1 2.6 1.3 2.5 2.8-.1 1.3-1.2 2.4-2.5 2.5" fill="#fff"/>
  <path d="M74.8 107.6c-14.7 0-28.5-7.2-37-19.2-.9-1.1-.7-2.8.4-3.7 1.1-.9 2.8-.7 3.7.4.1.1.2.2.2.3 12.8 18.1 37.9 22.4 56 9.6s22.4-37.9 9.6-56-37.9-22.4-56-9.6c-3.8 2.7-7 5.9-9.7 9.7-.8 1.2-2.4 1.6-3.6.8-1.2-.8-1.6-2.4-.8-3.6 0-.1.1-.1.1-.2C52.1 15.6 80.4 10.6 100.9 25s25.5 42.7 11.1 63.2c-8.5 12.3-22.4 19.5-37.2 19.4" fill="#fff"/>
  <path d="m83.5 66.9-8.8 4.7-8.7-4.7v-9.4l8.7-4.7 8.8 4.7v9.4z" fill="#fff"/>
</svg>
