<svg xmlns="http://www.w3.org/2000/svg" viewBox="0 0 140.8 124.4" xml:space="preserve">
  <path d="M139.5 57.5 109 4.7c-1.7-2.9-4.8-4.7-8.2-4.7h-61c-3.4 0-6.5 1.8-8.2 4.7L1.3 57.5a9.3 9.3 0 0 0 0 9.4l30.5 52.8c1.7 2.9 4.8 4.7 8.2 4.7h61c3.4 0 6.5-1.8 8.2-4.7l30.5-52.8c1.5-2.9 1.5-6.5-.2-9.4" fill="#febc18"/>
  <path d="m97.2 102.2 9.9-9.9-4.9-7.6 1.2-2.4c.9-1.7 1.6-3.4 2.2-5.2l.8-2.5 8.9-1.9v-14l-8.9-1.9-.8-2.5c-.6-1.8-1.3-3.6-2.2-5.2l-1.2-2.4 4.9-7.6-10-10.1-7.6 4.9-2.4-1.2c-1.7-.9-3.4-1.6-5.2-2.2l-2.5-.8-1.9-8.9h-14l-1.9 8.9-2.5.8c-1.8.6-3.5 1.3-5.2 2.2L51.3 34l-7.6-4.9-9.9 9.9 4.9 7.6-1.2 2.4c-.9 1.7-1.6 3.4-2.2 5.2l-.8 2.5-8.9 1.9v14l8.9 1.9.8 2.5c.6 1.8 1.3 3.5 2.2 5.2l1.2 2.4-4.9 7.6 9.9 9.9 9.5-6.4v-4.8c-1.6-1.1-3.1-2.3-4.5-3.7-12-12-12-31.5-.1-43.5 12-12 31.5-12 43.5-.1 12 12 12.1 31.5.1 43.5-1.5 1.5-3.1 2.8-4.9 4v4l9.9 7.1z" fill="#fff"/>
  <path d="m79.1 66.9-8.7 4.7-8.8-4.7v-9.4l8.8-4.7 8.7 4.7v9.4z" fill="#fff"/>
  <path d="M79.3 89.3c10.1-4.8 14.3-16.8 9.6-26.9-.8-1.8-2-3.4-3.3-4.9-.2-.2-.5-.3-.8-.2-.3.1-.5.4-.5.7v12l-13.9 8-13.9-8V58c0-.4-.3-.8-.7-.8-.2 0-.4.1-.6.2-7.5 8.3-6.9 21 1.4 28.5 1.5 1.3 3.1 2.4 4.9 3.3l1.1.5v34.6h15.6V89.8l1.1-.5z" fill="#fff"/>
</svg>
