<svg xmlns="http://www.w3.org/2000/svg" viewBox="0 0 140.8 124.8" xml:space="preserve">
  <path d="M140.7 61c-.2-1.2-.6-2.4-1.2-3.5L109 4.7c-1.5-2.5-4-4.2-6.9-4.6-.4-.1-.8-.1-1.3-.1h-61c-.4 0-.8 0-1.2.1-2.9.4-5.4 2.1-6.9 4.6L1.3 57.5C.7 58.6.3 59.8.1 61c-.1.8-.1 1.6 0 2.4.1.4.1.8.2 1.2.2.8.5 1.6.9 2.3l30.5 52.8c1.5 2.5 4 4.2 6.9 4.6.4.1.8.1 1.2.1h61c.4 0 .8 0 1.2-.1 2.9-.4 5.4-2.1 6.9-4.6l30.5-52.8c.4-.7.7-1.5.9-2.3.1-.4.2-.8.2-1.2.3-.8.3-1.6.2-2.4" fill="#febc18"/>
  <path d="M70.4 23.9C49.2 24 32 41.1 32 62.3c0 8.3 2.7 16.4 7.7 23L68 123.6l.2.2c1.1 1.2 2.9 1.3 4.1.2.2-.1.3-.3.4-.5 8.2-10.9 23.1-31.3 28.9-38.9 12.3-17.3 8.2-41.3-9.1-53.5-6.4-4.7-14.2-7.2-22.1-7.2M70.3 86c-13 0-23.6-10.6-23.5-23.7 0-13 10.6-23.6 23.7-23.5 13 0 23.5 10.6 23.5 23.6C94 75.3 83.4 85.9 70.3 86" fill="#fff"/>
  <path d="m79.1 67.4-8.7 4.7-8.8-4.7V58l8.8-4.7 8.7 4.7v9.4z" fill="#fff"/>
</svg>
