<svg xmlns="http://www.w3.org/2000/svg" viewBox="0 0 425.2 67.8" xml:space="preserve">
  <path d="m375.6 55.1.5-5.5c4.6-.8 9.2-3.7 10.6-10.8 0 .6.1 1.3.1 1.9-.1 6.1-3.4 11.2-11.2 14.4m-1.7-19-4.6 2.5-4.6-2.5v-5l4.6-2.5 4.6 2.5v5zm-11.3-18.4-.3 3.3a10 10 0 0 0-4.4 7c-.2-5 .9-8.2 4.7-10.3m-10.5 10.6c0-.6-.1-1.3-.1-1.9 0-6.1 3.3-11.2 11.2-14.4l-.5 5.5c-4.7.8-9.3 3.7-10.6 10.8m24 21 .3-3.3a10 10 0 0 0 4.4-7c.2 5-.9 8.2-4.7 10.3m28-41.9c0-3.8-3-6.8-6.7-6.9h-20.9v8.7c0 1-.1 2-.4 2.9-.7 2.8-1.1 5.7-1.1 8.6v4.6l-5.6-3.1-5.6 3V4.9l-.7 6.7c-9.1.6-16 9-16.9 16.4 0-.6-.1-1.3-.1-1.9 0-8.3 5.5-15.1 16.7-19.9-10.6 1.6-22.2 9.3-22.5 21.6v-1.6c0-13.2 12.2-22.3 22.3-25.8-12.3 1.8-27.5 11.5-28.1 27.3v31.8c0 3.8 3 6.8 6.7 6.9h20.9v-8.7c0-1 .1-2 .4-2.9.7-2.8 1.1-5.7 1.1-8.6v-4.4l5.6 3.1 5.6-3v20l.6-6.7c9.1-.6 16-9 16.9-16.4 0 .6.1 1.3.1 1.9 0 8.3-5.5 15.1-16.7 19.9C386.4 59 398 51.2 398.3 39v1.6c0 13.2-12.2 22.3-22.3 25.8 12.3-1.8 27.5-11.5 28.1-27.3V7.4m-301.2 6.1h1.6c2.2 0 3.3-1.1 3.3-3.7 0-2.5-1.1-3.7-3.3-3.7h-1.6v7.4zM94.4.6h12.8c6.5 0 9.5 4 9.5 9.2 0 6.1-3.8 9.3-10.8 9.3h-3v11.4h-8.5V.6zm32.4 12.7h1.7c1.8.2 3.4-1.1 3.6-2.9v-.7c0-2.4-1.1-3.5-3.6-3.5h-1.7v7.1zM118.2.6h13.4c6.5 0 9 3.4 9 8 0 4-1.7 6.6-5.6 7.1v.1c4.1.3 5.4 2.7 5.4 6.7v2.6c-.1 1.4 0 2.8.4 4.2.2.4.6.7 1 .9v.4h-9.1c-.7-1.8-.9-3.8-.8-5.7v-2c0-3.4-.7-4.3-2.8-4.3h-2.2v12h-8.5V.6h-.2zm36 25.3c2.6 0 2.9-2.2 2.9-10.3s-.3-10.3-2.9-10.3-2.9 2.2-2.9 10.3.3 10.3 2.9 10.3m0-25.9c8.7 0 11.7 4.4 11.7 15.6s-3 15.6-11.7 15.6-11.7-4.4-11.7-15.6S145.5 0 154.2 0M13.8 45.1v-.7c0-1.8-.8-3.2-2.4-3.2-1.4-.1-2.6 1-2.7 2.3v.3c0 5.9 14 3 14 14 0 6.4-4.1 9.2-11.6 9.2-7.1 0-11-2.2-11-8.4v-1h8.3v.7c0 2.6 1.2 3.5 2.8 3.5 1.5 0 2.7-1.1 2.8-2.6v-.3C14 53 .6 55.9.6 45.3c0-6 3.5-9.4 10.8-9.4 7.4 0 10.6 2.8 10.6 9.2h-8.2zm18.9-8.6v21.6c0 2.9 1 3.7 2.6 3.7s2.6-.8 2.6-3.7V36.5h8.5v19.7c0 8.4-4 10.9-11.1 10.9s-11.1-2.5-11.1-10.9V36.5h8.5zm24.5 12.9h1.6c2.2 0 3.3-1.1 3.3-3.7 0-2.5-1.1-3.7-3.3-3.7h-1.6v7.4zm-8.6-12.9h12.8c6.5 0 9.5 4 9.5 9.2 0 6.1-3.8 9.3-10.8 9.3h-3v11.4h-8.5V36.5zm32.1 12.9h1.6c2.2 0 3.3-1.1 3.3-3.7 0-2.5-1.1-3.7-3.3-3.7h-1.6v7.4zm-8.5-12.9H85c6.5 0 9.5 4 9.5 9.2 0 6.1-3.8 9.3-10.8 9.3h-3v11.4h-8.5V36.5zm35.3 25.3c2.6 0 2.9-2.2 2.9-10.3s-.3-10.3-2.9-10.3-2.9 2.2-2.9 10.3.2 10.3 2.9 10.3m0-25.9c8.7 0 11.7 4.4 11.7 15.6s-3 15.6-11.7 15.6-11.7-4.4-11.7-15.6 2.9-15.6 11.7-15.6m22.1 13.3h1.7c1.8.2 3.4-1.1 3.6-2.9v-.7c0-2.4-1.1-3.5-3.6-3.5h-1.7v7.1zm-8.5-12.7h13.4c6.5 0 9 3.4 9 8 0 4-1.7 6.6-5.6 7.1v.1c4.1.3 5.4 2.7 5.4 6.7V61c-.1 1.4 0 2.8.4 4.2.2.4.6.7 1 .9v.4h-9.1c-.7-1.8-.9-3.8-.8-5.7v-2c0-3.4-.7-4.3-2.8-4.3h-2.3v12h-8.5l-.1-30zm29.9 6.6h-6.4v-6.6H166v6.6h-6.4v23.3H151V43.1zM174.9.6h18v24.2h11V.6h18v65.9h-18V39.3h-11v27.1h-18V.6zm70.4 0v47.5c0 6.4 2 8 5.4 8s5.4-1.7 5.4-8V.6h18v43.2c0 18.5-8.3 24-23.4 24s-23.4-5.5-23.4-24V.6h18zm52.8 53.5h5c3.3 0 6.4-2.8 6.4-8.1 0-5.1-3.1-7.9-6.4-7.9h-5v16zm0-27.7h4.4c3.7 0 5.7-3.1 5.7-6.6 0-3.7-2-6.8-5.7-6.8h-4.4v13.4zM280.1.6h27.2c12.9 0 18.9 6.6 18.9 16.4 0 7-3.2 13.3-10.8 14.8v.2c9.1.8 12.8 8.2 12.8 15 0 11.4-5.8 19.5-20.8 19.5h-27.2V.6h-.1zM425.2.3h-1.9L421.2 6 419 .4h-1.9v7.4h1.2V1.6l2.4 6.2h.8l2.4-6.2v6.2h1.2l.1-7.5zm-9.6 0h-5.8v1h2.3v6.4h1.2V1.3h2.3v-1z"/>
</svg>
