<svg xmlns="http://www.w3.org/2000/svg" viewBox="0 0 432 63.5" xml:space="preserve">
  <path fill="#febc18" d="M-.2.2h432.1v63.5H-.2z"/>
  <path d="M72.5 18.8h-9.6v14.7c0 2.1-.1 3.9-2.6 3.9-2.6 0-2.6-1.8-2.6-3.9V18.8h-9.6v15.6c0 7.7 4.8 11.2 12.2 11.2 7.4 0 12.2-3.5 12.2-11.2V18.8zm58.2 0-8.2 23.5-3.8-5.6c-.5-.8-1.1-1.2-1.6-1.6v-.2c3.6-1.2 5.1-2.9 5.1-6.9 0-6.7-5-9.2-11-9.2H99.7v25.6l-9.1-25.6H79.9l-9.2 26.4h10.1l.8-3.3h7.2l.9 3.3h19.4v-8.5h.2l4.2 8.5H131.8l.8-3.3h7.2l.9 3.3h10.2l-9.4-26.4h-10.8zM83.4 35.7l1.7-8h.3c.2 1.1.4 2.3.6 3.4l1.1 4.7h-3.7zm27.2-5.2h-.7V26h.7c1.6 0 3.1.2 3.1 2.3 0 2-1.6 2.2-3.1 2.2zm23.6 5.2 1.8-8h.4c.2 1.1.4 2.3.6 3.4l1.1 4.7h-3.9zm34.9-9c0 2.2.4 4.5.8 6.7h-.3L161 18.8h-9.2v26.4h9.2v-8.6c0-1.7-.3-3.5-.6-5.3h.3l8.4 13.9h9.2V18.8h-9.2v7.9zM32.3 35.9h4.3c-.5 1.6-2.4 2.3-3.9 2.3-3.1 0-4.9-2.7-4.9-5.6 0-3.2 1.9-6.1 5.3-6.1 1.5 0 2.9.7 3.6 2l9-3.3c-2.1-4.5-8.4-6.8-13-6.8-8.3 0-14.6 5.2-14.6 13.8 0 8.5 6.5 13.4 14.6 13.4 4.1 0 8.4-1.6 11.2-4.7 3.1-3.4 3.1-7 3.2-11.3H32.3v6.3zm147.3-8.5 5.3-.2v18.1h9.6V27.1l5.3.2v-8.6h-20.2v8.7zm228.7 9.1c-2.6 0-5.2 1.6-5.2 4.5 0 2.8 2.7 4.3 5.2 4.3 2.6 0 5.2-1.6 5.2-4.3 0-2.9-2.6-4.5-5.2-4.5zm-15.5-9.1h-5.9v-8.9h-9.2v26.4h9.2v-9.2h5.9v9.2h9.2V18.5h-9.2v8.9zm-162.7 8h7.4v-6.9h-7.4V26h8.1v-7.2h-17.8v26.4h18V38H230v-2.6zm-19.7 0h7.4v-6.9h-7.4V26h8.1v-7.2h-17.8v26.4h18V38h-8.4v-2.6zm39.5-16.6h-9.8v26.4h12.1c7.7 0 13.3-5 13.3-12.8.1-9.7-6.7-13.6-15.6-13.6zm.4 18.5h-.6V27.1h.6c3.5 0 5.6 1.6 5.6 5.3.1 3.4-2.4 4.9-5.6 4.9zM308 18.1c-8 0-14.6 5.4-14.6 13.7 0 8.5 6.5 13.6 14.6 13.6s14.6-5.1 14.6-13.6c0-8.4-6.6-13.7-14.6-13.7zm0 18.9c-2.9 0-4.9-2.1-4.9-5.1 0-2.8 1.9-5.1 4.9-5.1 3 0 4.9 2.3 4.9 5.1.1 3-2 5.1-4.9 5.1zm30.1-3.8c0 2.1-.1 3.9-2.6 3.9-2.6 0-2.6-1.8-2.6-3.9V18.5h-9.6v15.6c0 7.7 4.8 11.2 12.2 11.2 7.4 0 12.2-3.5 12.2-11.2V18.5h-9.6v14.7zm24.3 2.4h4.3c-.5 1.6-2.4 2.3-3.9 2.3-3.1 0-4.9-2.7-4.9-5.6 0-3.2 1.9-6.1 5.3-6.1 1.5 0 2.9.7 3.6 2l9-3.3c-2.1-4.5-8.4-6.8-13-6.8-8.3 0-14.6 5.2-14.6 13.8 0 8.5 6.5 13.4 14.6 13.4 4.1 0 8.4-1.6 11.2-4.7 3.1-3.4 3.1-7 3.2-11.3h-14.8v6.3zm-89.3-8.5 5.3-.2V45h9.6V26.8l5.3.2v-8.6h-20.2v8.7z"/>
  <g>
    <path d="M408.3 18.4c-2.1 0-3.9 1.4-3.9 3.9s1.9 3.9 3.9 3.9c2.1 0 3.9-1.4 3.9-3.9s-1.8-3.9-3.9-3.9zm0 6.9c-1.6 0-2.8-1.2-2.8-3s1.3-3 2.8-3c1.5 0 2.8 1.2 2.8 3s-1.3 3-2.8 3z"/>
    <path d="M409 22.6c.6 0 1-.3 1-1.1 0-1-.6-1.3-1.7-1.3h-1.6v4.2h.9v-1.8h.4l1 1.8h1.1l-1.1-1.8zm-.6-.7h-.8v-1h.6c.3 0 .8 0 .8.5.1.5-.2.5-.6.5z"/>
  </g>
</svg>
